
<?xml version="1.0" encoding="utf-8"?>
<!-- Generator: Adobe Illustrator 19.2.0, SVG Export Plug-In . SVG Version: 6.00 Build 0)  -->
<svg version="1.1" id="Layer_1" xmlns="http://www.w3.org/2000/svg" xmlns:xlink="http://www.w3.org/1999/xlink" x="0px" y="0px"
	 width="165px" height="65px" viewBox="0 0 165 65" style="enable-background:new 0 0 165 65;" xml:space="preserve">
<style type="text/css">
	.st0{fill:#4CB150;}
	.st1{fill:#E93E26;}
	.st2{fill:#F4AE23;}
	.st3{fill:#0C85C4;}
	.st4{fill:#909295;}
</style>
<path class="st0" d="M117.6,15.5c0-9.8-6.6-16-20.5-14.5v22.9h-1.8l-1.2,6h3.1v10.8h7.6V30C113.4,28.8,117.6,23.3,117.6,15.5z
	 M104.7,23.6V7.4c0,0,4.9,0.5,4.9,8.1C109.6,23.1,104.7,23.6,104.7,23.6z"/>
<polygon class="st1" points="10.5,7.3 21.3,7.3 21.3,1 2.9,1 2.9,7.3 2.9,12.3 1.2,12.3 0,18.2 2.9,18.2 2.9,34.3 2.9,40.6 
	10.5,40.6 21.3,40.6 21.3,34.3 10.5,34.3 10.5,28.4 10.5,20.4 10.5,18.2 17,18.2 18.2,12.3 10.5,12.3 10.5,8 "/>
<path class="st2" d="M34.2,8.6c-3.7,0.1-6.7,2.1-6.7,2.1l2.3,4.4c0,0,2.2-0.8,3.4-0.8c1.8,0,3,1.1,3,3.1v3.1
	c-3.7-0.6-11.1,0.6-11.4,9.6c-0.3,6.3,2.9,11.2,11.4,10.9c0,0,0.1,0,0.1,0c0,0,0,0,0,0c4.3,0,7.3-1.2,7.3-1.2V18.5
	C43.6,12.3,41.1,8.4,34.2,8.6z M32.2,30.5c0-4.1,2.2-5,4-5.1v10.4c0,0-0.1,0-0.1,0C33.2,36,32.2,33.4,32.2,30.5z"/>
<path class="st0" d="M128.7,8.6c-3.7,0.1-6.7,2.1-6.7,2.1l2.3,4.4c0,0,2.2-0.8,3.4-0.8c1.8,0,3,1.1,3,3.1v3.1
	c-3.7-0.6-11.1,0.6-11.4,9.6c-0.3,6.3,2.9,11.2,11.4,10.9c0,0,0.1,0,0.1,0c0,0,0,0,0,0c4.3,0,7.3-1.2,7.3-1.2V18.5
	C138,12.3,135.6,8.4,128.7,8.6z M126.7,30.5c0-4.1,2.2-5,4-5.1v10.4c0,0-0.1,0-0.1,0C127.7,36,126.7,33.4,126.7,30.5z"/>
<path class="st0" d="M60.4,22c-2.8-2.7-4.3-3.3-4.1-5.4c0.4-3.5,4.9-2.2,6.4-1.1c1-1.3,2.8-4.3,2.8-4.3s-3.4-2.9-8.4-2.7
	c-3.7,0.1-7.5,2.6-8,7.7c-0.2,3,1.2,6.5,5.4,10c0.7,0.8,3.5,3.1,3.7,5.5c0.3,2.8-2,3.4-3.9,2.9c-1.3-0.4-3.3-1.7-3.3-1.7
	s-1.6,2.5-3,4.7c1.4,1.3,3.4,2.6,5.6,3.2c6.6,1.8,12.1-1.9,12.1-8.7C65.6,27.6,63.3,24.8,60.4,22z"/>
<path class="st0" d="M165,9.1L165,9.1h-7.4l-4.5,18.5l-4.4-18.5h-7.4h0l8.6,30.3l-0.3,1.2c-0.9,4.5-6.1,2.7-6.1,2.7l-1.2,4.4
	c0,0,2.3,1.1,5,1.1c6.1,0,7.9-5.6,7.9-5.6L165,9.1z"/>
<path class="st3" d="M91.8,9.1L91.8,9.1h-7.4L80,27.7L75.6,9.1h-7.4h0l8.6,30.3l-0.3,1.2c-0.9,4.5-6.1,2.7-6.1,2.7l-1.2,4.4
	c0,0,2.3,1.1,5,1.1c6.1,0,7.9-5.6,7.9-5.6L91.8,9.1z"/>
<path class="st4" d="M32.7,64.3h-1.3l-2.7-3.6v3.6h-1.1v-7.1h1.1v3.4l2.7-3.4h1.2l-2.7,3.4L32.7,64.3z"/>
<path class="st4" d="M2.9,60h3.2c-0.1-1.1-0.9-2-2.2-2c-0.6,0-1.1,0.1-1.5,0.3l-0.3-0.9c0.5-0.2,1.1-0.4,1.9-0.4
	c2.4,0,3.5,1.6,3.5,3.5c0,2.3-1.6,3.5-3.6,3.5c-0.7,0-1.4-0.2-1.8-0.3l0.2-1c0.4,0.2,1,0.3,1.5,0.3c1.4,0,2.2-0.9,2.3-2.1H2.9V60z"
	/>
<path class="st4" d="M15.8,57.2V64h-1.3v-5.8h-1.9V60c0,1.6-0.2,3.1-1.2,3.7c-0.3,0.2-0.8,0.3-1.3,0.3l-0.2-1
	c0.3-0.1,0.6-0.2,0.8-0.4c0.5-0.5,0.6-1.6,0.6-2.6v-2.9H15.8z"/>
<path class="st4" d="M23.5,61h-2.7v2h3v1h-4.3v-6.8h4.1v1h-2.8V60h2.7V61z"/>
<path class="st4" d="M36.7,58.2h-2v-1h5.4v1h-2V64h-1.3V58.2z"/>
<path class="st4" d="M43.1,57.3c0.5-0.1,1.1-0.1,2-0.1c0.9,0,1.6,0.2,2.1,0.6c0.4,0.3,0.7,0.9,0.7,1.5c0,0.7-0.2,1.2-0.6,1.6
	c-0.5,0.5-1.3,0.7-2.2,0.7c-0.2,0-0.5,0-0.6,0V64h-1.3V57.3z M44.4,60.4c0.2,0,0.4,0.1,0.6,0.1c1,0,1.6-0.5,1.6-1.3
	c0-0.8-0.5-1.2-1.4-1.2c-0.4,0-0.6,0-0.8,0.1V60.4z"/>
<path class="st4" d="M57.5,60.5c0,2.3-1.4,3.6-3.4,3.6c-2,0-3.3-1.5-3.3-3.5c0-2.1,1.4-3.6,3.4-3.6C56.3,57.1,57.5,58.6,57.5,60.5z
	 M52.2,60.6c0,1.4,0.7,2.5,2,2.5c1.3,0,2-1.1,2-2.5c0-1.3-0.7-2.5-2-2.5C52.9,58.1,52.2,59.2,52.2,60.6z"/>
<path class="st4" d="M62.1,57.2v2.7h3v-2.7h1.3V64h-1.3v-3h-3v3h-1.3v-6.8H62.1z"/>
<path class="st4" d="M71.3,57.2v2.7h3v-2.7h1.3V64h-1.3v-3h-3v3H70v-6.8H71.3z"/>
<path class="st4" d="M80.6,57.2v2.5c0.2,0,0.6-0.1,0.8-0.1c1.5,0,2.8,0.7,2.8,2.2c0,0.6-0.2,1.1-0.6,1.5c-0.6,0.6-1.7,0.8-2.7,0.8
	c-0.7,0-1.2-0.1-1.6-0.1v-6.8H80.6z M80.6,63.1c0.2,0,0.4,0,0.6,0c0.8,0,1.6-0.4,1.6-1.3c0-0.9-0.8-1.3-1.6-1.3c-0.3,0-0.5,0-0.6,0
	V63.1z M86.2,57.2V64h-1.3v-6.8H86.2z"/>
<path class="st4" d="M93.9,61h-2.7v2h3v1H90v-6.8h4.1v1h-2.8V60h2.7V61z"/>
<path class="st4" d="M107.4,57.2V64h-1.3v-5.8h-2.9V64h-1.3v-6.8H107.4z"/>
<path class="st4" d="M116.1,57.2V64h-1.3v-5.8h-1.9V60c0,1.6-0.2,3.1-1.2,3.7c-0.3,0.2-0.8,0.3-1.3,0.3l-0.2-1
	c0.3-0.1,0.6-0.2,0.8-0.4c0.5-0.5,0.6-1.6,0.6-2.6v-2.9H116.1z"/>
<path class="st4" d="M121.2,62.1l-0.6,1.9h-1.3l2.3-6.8h1.7l2.3,6.8h-1.4l-0.6-1.9H121.2z M123.3,61.1l-0.6-1.7
	c-0.1-0.4-0.3-0.9-0.4-1.3h0c-0.1,0.4-0.2,0.9-0.3,1.3l-0.5,1.7H123.3z"/>
<path class="st4" d="M130.1,58.2h-2v-1h5.4v1h-2V64h-1.3V58.2z"/>
<path class="st4" d="M140.4,61h-2.7v2h3v1h-4.3v-6.8h4.1v1h-2.8V60h2.7V61z"/>
<path class="st4" d="M156.3,57.2v2.4c0,1.1,0,2.1-0.1,3l0,0c0.4-0.8,0.8-1.6,1.3-2.4l1.9-3.1h1.3V64h-1.2v-2.4c0-1.1,0-1.9,0.1-2.8
	h0c-0.3,0.8-0.8,1.6-1.3,2.4l-1.8,2.9h-1.4v-6.8H156.3z"/>
<g>
	<path class="st4" d="M152.3,64h-1.2l-2.6-3.4V64h-1v-6.7h1v3.2l2.6-3.2h1.1l-2.6,3.2L152.3,64z"/>
	<polygon class="st4" points="146.3,60.5 143.7,57.3 144.9,57.3 147.4,60.6 147.4,60.6 144.8,64 143.6,64 	"/>
</g>
</svg>
