<svg xmlns="http://www.w3.org/2000/svg" xmlns:xlink="http://www.w3.org/1999/xlink" preserveAspectRatio="xMidYMid" width="2133.15" height="2133.5" viewBox="0 0 2133.15 2133.5">
  <defs>
    <style>
      .cls-1 {
        fill: #48649f;
      }

      .cls-1, .cls-2 {
        fill-rule: evenodd;
      }

      .cls-2 {
        fill: #fff;
      }
    </style>
  </defs>
  <g>
    <path d="M2015.490,2133.512 C2080.510,2133.512 2133.166,2080.848 2133.166,2015.816 L2133.166,117.685 C2133.166,52.637 2080.510,-0.011 2015.490,-0.011 L117.634,-0.011 C52.587,-0.011 -0.002,52.637 -0.002,117.685 L-0.002,2015.816 C-0.002,2080.848 52.587,2133.512 117.634,2133.512 L2015.490,2133.512 Z" class="cls-1"/>
    <path d="M1472.768,2133.512 L1472.768,1306.338 L1749.164,1306.338 L1790.680,985.434 L1472.768,985.434 L1472.768,779.714 C1472.768,686.483 1497.741,622.949 1631.421,622.949 L1801.913,623.002 L1801.913,334.868 C1772.414,330.949 1671.215,322.963 1553.475,322.963 C1307.663,322.963 1139.506,472.244 1139.506,747.830 L1139.506,985.434 L860.319,985.434 L860.319,1306.338 L1139.441,1306.338 L1139.441,2133.512 L1472.768,2133.512 Z" class="cls-2"/>
  </g>
</svg>
